<svg width="605" height="185" viewBox="0 0 605 185" fill="none" xmlns="http://www.w3.org/2000/svg">
<path fill-rule="evenodd" clip-rule="evenodd" d="M259.617 117.268C257.05 117.268 254.074 116.755 250.788 115.626L252.226 102.225C252.698 102.332 253.142 102.385 253.561 102.385C260.95 102.385 261.977 86.5819 262.901 66.874L304.982 66.8733V116.139H287.533V80.2162H278.809C277.578 100.743 273.574 117.268 259.617 117.268Z" fill="#8A99AF"/>
<path fill-rule="evenodd" clip-rule="evenodd" d="M392.559 104.334C400.256 104.334 401.281 97.5631 401.281 94.0717C401.282 90.5833 400.255 83.8097 392.558 83.8097C384.862 83.8097 383.832 90.584 383.832 94.0717C383.833 97.5631 384.861 104.335 392.559 104.334ZM392.559 117.679C378.291 117.679 365.873 109.982 365.873 87.4024C365.873 69.2359 372.134 59.6903 380.961 54.1498C393.472 46.3502 405.185 48.4877 412.345 44.6318L414.932 58.1504C408.569 63.8979 399.948 60.9218 391.428 65.1303C386.401 67.5941 383.832 73.3423 383.832 77.3438C386.708 73.7504 391.325 70.4675 398.715 70.4675C410.417 70.4667 419.242 78.6788 419.242 94.0717C419.243 109.981 407.337 117.679 392.559 117.679Z" fill="#8A99AF"/>
<path fill-rule="evenodd" clip-rule="evenodd" d="M456.788 66.8733H474.748L454.12 121.272C448.475 136.05 439.955 140.055 431.54 140.055C428.462 140.052 425.383 139.438 422.508 138.72L425.806 124.952C426.923 125.092 428.051 125.172 429.18 125.172C433.488 125.172 437.081 122.706 439.443 117.371L416.247 66.8733H434.722L446.73 96.2265L456.788 66.8733Z" fill="#8A99AF"/>
<path fill-rule="evenodd" clip-rule="evenodd" d="M478.886 116.139V66.8733H517.27V81.2431H496.334V116.139H478.886Z" fill="#8A99AF"/>
<path fill-rule="evenodd" clip-rule="evenodd" d="M542.089 105.876C544.963 105.876 547.528 105.261 550.197 103.31L550.198 96.6384C548.657 96.1253 546.297 95.7158 543.936 95.7158C539.832 95.7158 536.136 97.1513 536.136 101.053C536.136 103.617 538.396 105.876 542.089 105.876ZM571.032 105.157L572.982 115.626C570.622 116.549 567.44 117.166 564.156 117.166C558.716 117.164 554.714 115.217 552.456 111.727C547.735 115.421 542.294 117.679 535.315 117.679C525.873 117.679 518.176 112.033 518.176 102.489C518.176 90.0703 529.977 86.2737 539.524 86.2737C543.219 86.2737 546.914 86.6816 550.197 87.4024L550.198 85.6571C550.198 82.168 546.914 79.4978 539.935 79.4978C534.735 79.4978 529.868 80.6942 525.652 82.1762L522.691 68.6194C526.798 67.2858 534.596 65.3358 541.884 65.3358C557.587 65.3358 567.644 70.7742 567.644 88.3265L567.644 102.078C567.644 104.438 569.287 105.157 571.032 105.157Z" fill="#8A99AF"/>
<path fill-rule="evenodd" clip-rule="evenodd" d="M334.109 105.876C336.984 105.876 339.55 105.261 342.218 103.31V96.6384C340.678 96.1253 338.318 95.7158 335.959 95.7158C331.853 95.7158 328.159 97.1513 328.159 101.053C328.159 103.617 330.417 105.876 334.109 105.876ZM363.053 105.157L365.005 115.626C362.643 116.549 359.461 117.166 356.177 117.166C350.738 117.164 346.735 115.217 344.477 111.727C339.756 115.421 334.317 117.679 327.338 117.679C317.895 117.679 310.197 112.033 310.197 102.489C310.197 90.0703 322 86.2737 331.545 86.2737C335.238 86.2737 338.935 86.6816 342.218 87.4024V85.6571C342.218 82.168 338.935 79.4978 331.956 79.4978C326.758 79.4978 321.889 80.6942 317.674 82.1762L314.712 68.6194C318.82 67.2858 326.62 65.3358 333.904 65.3358C349.608 65.3358 359.667 70.7742 359.667 88.3265V102.078C359.667 104.438 361.308 105.157 363.053 105.157Z" fill="#8A99AF"/>
<path fill-rule="evenodd" clip-rule="evenodd" d="M216.768 105.876C219.643 105.876 222.208 105.261 224.877 103.31V96.6384C223.336 96.1253 220.976 95.7158 218.615 95.7158C214.512 95.7158 210.817 97.1513 210.817 101.053C210.817 103.617 213.075 105.876 216.768 105.876ZM245.712 105.157L247.663 115.626C245.302 116.549 242.119 117.166 238.835 117.166C233.395 117.164 229.393 115.217 227.135 111.727C222.415 115.421 216.974 117.679 209.996 117.679C200.553 117.679 192.855 112.033 192.855 102.489C192.856 90.0703 204.658 86.2737 214.203 86.2737C217.898 86.2737 221.593 86.6816 224.877 87.4024V85.6571C224.877 82.168 221.593 79.4978 214.613 79.4978C209.414 79.4978 204.547 80.6942 200.333 82.1762L197.37 68.6194C201.476 67.2858 209.276 65.3358 216.563 65.3358C232.266 65.3358 242.323 70.7742 242.323 88.3265V102.078C242.323 104.438 243.967 105.157 245.712 105.157Z" fill="#8A99AF"/>
<path fill-rule="evenodd" clip-rule="evenodd" d="M71.0829 53.2212C71.3957 53.3967 71.7107 53.5738 72.0257 53.7561C72.2095 53.8603 72.3938 53.969 72.5768 54.077C73.2136 54.446 73.8514 54.8256 74.4926 55.2112C74.6262 55.2922 74.7596 55.3738 74.8946 55.4526C75.1931 55.6363 75.4946 55.8239 75.7961 56.0107C76.0174 56.1472 76.2392 56.283 76.4583 56.4225C76.7508 56.607 77.0464 56.7915 77.3366 56.979C77.5736 57.1298 77.8085 57.2797 78.0433 57.4334C78.3298 57.6157 78.6155 57.8017 78.902 57.9885C79.1615 58.158 79.4233 58.3335 79.6843 58.5075C80.1223 58.7963 80.5611 59.0941 81.0021 59.3919C81.3081 59.5989 81.6148 59.8073 81.9224 60.0196C82.1879 60.2018 82.4526 60.3879 82.7166 60.5732C82.9911 60.7637 83.2642 60.9549 83.5387 61.1492C83.805 61.3389 84.0698 61.5272 84.3353 61.7162C84.6204 61.9202 84.906 62.1287 85.1917 62.3357C85.4445 62.518 85.6959 62.7002 85.9479 62.8855C86.3267 63.16 86.7023 63.4427 87.0803 63.7255C87.3818 63.9505 87.6833 64.1763 87.9871 64.4058C88.3568 64.684 88.7259 64.9653 89.0957 65.2496C89.3327 65.4281 89.5689 65.6141 89.8059 65.7994C90.1217 66.0439 90.4358 66.2913 90.7531 66.5381C90.9939 66.7271 91.2324 66.9169 91.4709 67.1052C91.8069 67.3707 92.1429 67.6399 92.4767 67.9115C92.6927 68.0817 92.9043 68.2527 93.118 68.4259C93.5501 68.7754 93.9837 69.1318 94.4127 69.4858C94.8425 69.1325 95.2699 68.7822 95.6974 68.4365C95.9225 68.2512 96.1496 68.0704 96.3769 67.8889C96.6994 67.6271 97.0183 67.3714 97.3408 67.1172C97.5913 66.9184 97.8396 66.7226 98.0893 66.5254C98.3931 66.2883 98.6947 66.0521 98.9985 65.8166C99.2452 65.6246 99.4941 65.4302 99.7423 65.2405C100.087 64.9742 100.43 64.7178 100.771 64.456C101.127 64.1883 101.479 63.9235 101.83 63.6618C102.177 63.4037 102.522 63.1464 102.866 62.8952C103.131 62.6994 103.394 62.509 103.657 62.3177C103.931 62.1197 104.203 61.9232 104.477 61.729C104.752 61.5295 105.027 61.3351 105.302 61.1401C105.563 60.9541 105.825 60.7718 106.086 60.5903C106.362 60.396 106.638 60.2048 106.913 60.0143C107.186 59.8245 107.459 59.6393 107.735 59.4525C108.224 59.1202 108.71 58.7947 109.196 58.4715C109.437 58.3102 109.675 58.152 109.913 57.9937C110.211 57.801 110.508 57.6105 110.801 57.417C111.027 57.2745 111.25 57.1304 111.474 56.9887C111.777 56.7952 112.078 56.6039 112.378 56.4149C112.589 56.2821 112.797 56.1554 113.004 56.0264C113.317 55.8321 113.628 55.6379 113.94 55.4489C114.022 55.3987 114.102 55.3521 114.182 55.3018C114.885 54.8758 115.583 54.4625 116.28 54.059C116.451 53.9585 116.622 53.8596 116.791 53.7613C117.114 53.5738 117.435 53.393 117.758 53.213C117.91 53.1268 118.064 53.0398 118.218 52.9565C110.141 45.814 102.106 39.7845 94.4127 35C86.7197 39.7845 78.686 45.814 70.6074 52.9565C70.7657 53.0405 70.9247 53.1312 71.0829 53.2212Z" fill="#35388A"/>
<path fill-rule="evenodd" clip-rule="evenodd" d="M137.703 73.5006C137.375 73.6799 137.042 73.8621 136.712 74.0473C136.543 74.1411 136.37 74.2357 136.201 74.3309C135.875 74.5162 135.546 74.7022 135.22 74.8882C135.056 74.9819 134.894 75.0795 134.731 75.174C134.002 75.5962 133.269 76.0304 132.534 76.4767C132.482 76.509 132.429 76.5397 132.375 76.5712C132.061 76.7625 131.743 76.9613 131.426 77.1563C131.223 77.283 131.017 77.409 130.813 77.538C130.508 77.727 130.207 77.9198 129.901 78.1148C129.682 78.255 129.462 78.3975 129.239 78.54C128.941 78.7335 128.641 78.9256 128.344 79.1237C128.11 79.2737 127.878 79.4303 127.645 79.5841C127.145 79.9186 126.64 80.2569 126.135 80.5997C125.873 80.7775 125.61 80.956 125.348 81.136C125.07 81.328 124.788 81.5245 124.51 81.7195C124.252 81.9002 123.995 82.0795 123.735 82.2632C123.459 82.4575 123.182 82.6569 122.906 82.8542C122.636 83.0469 122.367 83.2428 122.096 83.4385C121.83 83.632 121.565 83.8248 121.297 84.022C120.953 84.2733 120.61 84.5283 120.265 84.7855C119.913 85.0488 119.56 85.3129 119.207 85.5807C118.862 85.8394 118.52 86.1019 118.175 86.3651C117.926 86.5556 117.677 86.7499 117.43 86.9411C117.126 87.1766 116.825 87.4122 116.523 87.6507C116.271 87.8472 116.02 88.046 115.771 88.2433C115.522 88.4405 115.272 88.6407 115.024 88.8417C115.534 89.3795 116.041 89.9218 116.551 90.4694C116.71 90.6411 116.869 90.8135 117.026 90.9853C117.422 91.4136 117.821 91.8463 118.216 92.2791C118.406 92.4861 118.592 92.6947 118.781 92.9002C119.167 93.327 119.554 93.7589 119.942 94.1902C120.11 94.3792 120.278 94.5661 120.446 94.7558C120.994 95.3723 121.54 95.9895 122.084 96.6151C122.628 97.2383 123.168 97.8631 123.705 98.4894C123.871 98.6837 124.036 98.8787 124.203 99.0752C124.577 99.514 124.951 99.955 125.322 100.397C125.505 100.614 125.686 100.833 125.868 101.052C126.243 101.501 126.618 101.953 126.99 102.405C127.143 102.589 127.297 102.775 127.448 102.961C127.963 103.587 128.473 104.217 128.979 104.847C129.052 104.937 129.124 105.028 129.196 105.117C129.632 105.661 130.061 106.204 130.491 106.748C130.66 106.959 130.823 107.171 130.99 107.383C131.329 107.816 131.667 108.25 132.001 108.684C132.175 108.907 132.348 109.132 132.52 109.356C132.736 109.635 132.952 109.916 133.166 110.197C133.178 110.187 133.188 110.179 133.202 110.169C133.542 109.895 133.883 109.624 134.223 109.352C134.458 109.165 134.695 108.98 134.931 108.794C135.253 108.54 135.573 108.291 135.896 108.04C136.127 107.86 136.358 107.682 136.588 107.504C136.972 107.21 137.354 106.917 137.738 106.629C138.013 106.422 138.287 106.215 138.562 106.009C138.959 105.714 139.354 105.421 139.748 105.131C139.994 104.952 140.236 104.774 140.483 104.597C140.777 104.382 141.071 104.171 141.363 103.962C141.624 103.776 141.884 103.59 142.142 103.408C142.426 103.206 142.707 103.011 142.987 102.813C143.246 102.633 143.502 102.451 143.76 102.273C144.089 102.048 144.415 101.828 144.741 101.605C145.153 101.327 145.563 101.051 145.971 100.78C146.246 100.597 146.521 100.413 146.796 100.235C147.075 100.05 147.353 99.8717 147.632 99.6917C147.876 99.5327 148.12 99.3774 148.363 99.2229C148.649 99.0384 148.934 98.8576 149.22 98.6791C149.453 98.5336 149.683 98.3904 149.915 98.2479C150.206 98.0648 150.497 97.8856 150.787 97.7086C150.969 97.5984 151.148 97.4911 151.33 97.3824C151.914 97.0314 152.496 96.6849 153.077 96.3489C153.277 96.2304 153.475 96.1149 153.674 96.0001C153.981 95.8246 154.286 95.6536 154.592 95.4811C154.787 95.3693 154.983 95.2591 155.18 95.1503C155.394 95.0296 155.612 94.9087 155.827 94.7917C151.167 88.3054 146.051 81.8334 140.517 75.4904C139.821 74.6886 139.119 73.8996 138.42 73.1151C138.32 73.1683 138.222 73.2202 138.123 73.2734C137.982 73.3477 137.843 73.4234 137.703 73.5006Z" fill="#00A0E3"/>
<path fill-rule="evenodd" clip-rule="evenodd" d="M94.7012 69.7227C94.8542 69.8502 95.0088 69.9815 95.1633 70.1105C95.563 70.4427 95.9636 70.7787 96.3619 71.117C96.5779 71.3 96.7915 71.4814 97.0052 71.6644C97.357 71.9622 97.7043 72.2629 98.0553 72.5659C98.2698 72.752 98.4852 72.938 98.699 73.127C99.0845 73.46 99.4683 73.7961 99.8515 74.1381C100.024 74.2888 100.194 74.4381 100.367 74.5926C100.91 75.0757 101.454 75.5624 101.996 76.0574C102.145 76.1909 102.295 76.3296 102.444 76.4661C102.853 76.8389 103.261 77.2155 103.67 77.5935C103.872 77.781 104.07 77.9678 104.273 78.1546C104.643 78.4981 105.014 78.8452 105.382 79.197C105.581 79.383 105.778 79.569 105.974 79.7588C106.406 80.1668 106.835 80.5808 107.266 80.9949C107.39 81.1164 107.516 81.2378 107.642 81.3601C108.194 81.8948 108.744 82.435 109.298 82.9803C109.447 83.1303 109.597 83.2802 109.748 83.431C110.156 83.8375 110.565 84.2462 110.975 84.6602C111.165 84.8507 111.356 85.0443 111.545 85.2378C111.93 85.6286 112.316 86.0224 112.7 86.4184C112.879 86.6044 113.058 86.7873 113.238 86.9726C113.719 87.4706 114.202 87.9747 114.683 88.4824C114.756 88.5589 114.828 88.6317 114.899 88.7082C114.941 88.7517 114.983 88.7951 115.025 88.8416C115.273 88.6399 115.523 88.4412 115.771 88.2432C116.021 88.046 116.271 87.8472 116.523 87.6507C116.825 87.4107 117.126 87.1766 117.43 86.9411C117.678 86.7498 117.926 86.5563 118.175 86.3651C118.52 86.1011 118.862 85.8409 119.207 85.5806C119.56 85.3128 119.914 85.0487 120.265 84.7855C120.61 84.5282 120.954 84.2732 121.297 84.0219C121.565 83.8239 121.83 83.632 122.096 83.4385C122.367 83.2427 122.636 83.0484 122.907 82.8541C123.182 82.6554 123.458 82.4582 123.736 82.2632C123.995 82.0787 124.252 81.9009 124.51 81.7194C124.789 81.5244 125.07 81.3279 125.348 81.1359C125.61 80.9544 125.873 80.7774 126.135 80.5996C126.64 80.2554 127.145 79.9185 127.645 79.584C127.878 79.4295 128.111 79.2736 128.344 79.1236C128.642 78.9248 128.941 78.7335 129.239 78.54C129.463 78.3975 129.682 78.2565 129.902 78.1147C130.207 77.9182 130.509 77.7277 130.814 77.538C131.019 77.4075 131.222 77.283 131.426 77.1562C131.744 76.9597 132.061 76.7624 132.375 76.5711C132.429 76.5389 132.482 76.5089 132.534 76.4767C133.271 76.0296 134.002 75.5969 134.731 75.1739C134.894 75.0787 135.056 74.9826 135.22 74.8881C135.546 74.7014 135.875 74.5161 136.201 74.3309C136.371 74.2349 136.543 74.1425 136.713 74.0473C137.043 73.862 137.375 73.6806 137.704 73.5006C137.843 73.4225 137.982 73.3476 138.123 73.2733C138.223 73.2193 138.32 73.166 138.418 73.115C131.771 65.6754 124.979 58.9297 118.219 52.9564C118.066 53.0397 117.911 53.1252 117.759 53.2129C117.436 53.3922 117.115 53.5737 116.792 53.7612C116.622 53.8587 116.451 53.9584 116.28 54.0589C115.584 54.4624 114.885 54.8757 114.182 55.3017C114.103 55.3512 114.023 55.4001 113.94 55.4488C113.63 55.6378 113.318 55.8328 113.005 56.0263C112.797 56.1545 112.589 56.2828 112.379 56.4148C112.079 56.6038 111.777 56.7951 111.474 56.9886C111.251 57.1303 111.027 57.2744 110.801 57.4169C110.508 57.6104 110.212 57.8016 109.914 57.9936C109.675 58.1519 109.437 58.3108 109.196 58.4714C108.712 58.7939 108.225 59.1209 107.736 59.4524C107.459 59.6384 107.186 59.8244 106.913 60.0142C106.638 60.2047 106.362 60.3974 106.087 60.5902C105.826 60.7717 105.564 60.9547 105.302 61.14C105.028 61.3342 104.752 61.5301 104.478 61.7289C104.205 61.9231 103.932 62.1196 103.658 62.3176C103.395 62.5081 103.132 62.7001 102.866 62.8951C102.523 63.1448 102.177 63.4036 101.831 63.6617C101.48 63.9234 101.127 64.1882 100.772 64.4559C100.431 64.7169 100.086 64.9756 99.7429 65.2404C99.4946 65.4279 99.245 65.6245 98.999 65.8165C98.696 66.052 98.3936 66.2882 98.0899 66.5253C97.8401 66.7218 97.5918 66.9183 97.3413 67.1171C97.0188 67.3706 96.6999 67.6293 96.3774 67.8888C96.1501 68.0695 95.923 68.2511 95.698 68.4364C95.2704 68.7814 94.8428 69.1354 94.4153 69.4886C94.5083 69.5666 94.606 69.6432 94.7012 69.7227Z" fill="#3769B0"/>
<path fill-rule="evenodd" clip-rule="evenodd" d="M34.2352 95.4811C34.5405 95.6521 34.8443 95.8253 35.1511 96.0001C35.3528 96.1149 35.5523 96.2334 35.7526 96.3489C36.3278 96.6849 36.9038 97.0246 37.482 97.3726C37.668 97.4858 37.8528 97.5961 38.0396 97.7086C38.3283 97.8856 38.6185 98.0663 38.908 98.2479C39.1412 98.3904 39.3745 98.5336 39.607 98.6791C39.892 98.8569 40.1778 99.0392 40.4628 99.2207C40.7051 99.3775 40.951 99.5334 41.197 99.6917C41.4745 99.8717 41.7507 100.052 42.0297 100.233C42.3042 100.413 42.5817 100.597 42.8562 100.78C43.2664 101.052 43.6753 101.328 44.0855 101.605C44.4125 101.828 44.7387 102.048 45.065 102.273C45.323 102.451 45.5801 102.633 45.8381 102.813C46.1187 103.01 46.4032 103.206 46.6837 103.408C46.9439 103.59 47.2025 103.776 47.4627 103.962C47.7567 104.171 48.0508 104.382 48.3425 104.597C48.5893 104.774 48.8331 104.952 49.0776 105.131C49.4751 105.421 49.8718 105.717 50.2686 106.014C50.5424 106.215 50.811 106.419 51.084 106.626C51.468 106.916 51.8536 107.208 52.2368 107.504C52.4686 107.681 52.6987 107.86 52.9297 108.04C53.2523 108.291 53.575 108.541 53.896 108.794C54.1308 108.98 54.3676 109.165 54.6024 109.352C54.9429 109.623 55.2835 109.896 55.6255 110.169C55.6367 110.178 55.648 110.188 55.66 110.197C55.8715 109.919 56.0873 109.641 56.3011 109.361C56.4751 109.134 56.6509 108.906 56.8279 108.68C57.1601 108.245 57.4944 107.819 57.8319 107.388C58.0007 107.173 58.1666 106.96 58.3361 106.746C58.7606 106.208 59.188 105.672 59.617 105.133C59.695 105.038 59.7717 104.94 59.8482 104.844C60.3545 104.214 60.8638 103.588 61.3776 102.961C61.5306 102.775 61.6848 102.588 61.8393 102.402C62.2098 101.95 62.5819 101.502 62.9561 101.053C63.1392 100.833 63.3208 100.614 63.5061 100.397C63.8766 99.955 64.2485 99.5169 64.622 99.0782C64.787 98.8794 64.9543 98.6844 65.123 98.4894C65.6578 97.8624 66.198 97.2368 66.7418 96.6151C67.2863 95.9903 67.8323 95.3723 68.3784 94.7573C68.5501 94.566 68.7195 94.3755 68.889 94.1842C69.273 93.7544 69.6564 93.33 70.0404 92.9055C70.2317 92.6947 70.4234 92.4862 70.6147 92.2754C71.0069 91.8449 71.3972 91.4181 71.791 90.9951C71.953 90.8188 72.1156 90.6411 72.2776 90.4655C72.7862 89.9203 73.2953 89.3787 73.8023 88.8417C73.5495 88.6392 73.2977 88.4368 73.0464 88.2365C72.8034 88.0415 72.5583 87.8509 72.316 87.6604C72.0033 87.4121 71.6933 87.1722 71.382 86.9307C71.142 86.7425 70.9 86.5564 70.6592 86.3719C70.2984 86.0921 69.9377 85.82 69.5784 85.5484C69.2581 85.3062 68.937 85.0654 68.616 84.8254C68.2514 84.5539 67.8869 84.2823 67.5246 84.0153C67.2628 83.824 67.0049 83.6381 66.7476 83.4505C66.4686 83.248 66.1903 83.0485 65.9106 82.8474C65.6406 82.6539 65.3707 82.462 65.0999 82.2714C64.8329 82.0787 64.5658 81.895 64.298 81.7075C64.0272 81.5162 63.7542 81.3279 63.485 81.1404C63.2 80.9431 62.9165 80.7519 62.6315 80.5584C62.159 80.2374 61.6864 79.9187 61.2147 79.6059C60.9694 79.4424 60.7227 79.2789 60.4766 79.1198C60.1826 78.9248 59.8901 78.7374 59.5983 78.5491C59.371 78.3999 59.1437 78.2535 58.9142 78.1088C58.6164 77.9183 58.3172 77.7286 58.0194 77.5419C57.8079 77.4076 57.5959 77.2785 57.3836 77.1472C57.0746 76.9559 56.7654 76.7625 56.4564 76.5757C56.3686 76.5202 56.2824 76.4715 56.1962 76.4175C55.4994 75.9953 54.8072 75.5857 54.1172 75.1867C53.9462 75.084 53.7736 74.9834 53.6018 74.8874C53.2801 74.7014 52.9569 74.5192 52.6359 74.3362C52.4611 74.2364 52.2833 74.1381 52.1071 74.0406C51.7815 73.8591 51.4546 73.6806 51.1276 73.5021C50.9814 73.4226 50.8335 73.3446 50.6887 73.2651C50.5957 73.2156 50.5014 73.1661 50.4084 73.1151C49.7078 73.8996 49.0073 74.6894 48.3097 75.4904C42.7745 81.8334 37.6599 88.3054 33 94.7917C33.2138 94.908 33.4291 95.0311 33.6451 95.1503C33.8424 95.2591 34.0387 95.3708 34.2352 95.4811Z" fill="#00A0E3"/>
<path fill-rule="evenodd" clip-rule="evenodd" d="M112.566 128.516C112.396 128.299 112.228 128.085 112.056 127.867C111.635 127.332 111.21 126.798 110.783 126.265C110.702 126.166 110.626 126.067 110.548 125.968C110.04 125.338 109.531 124.714 109.019 124.088C108.865 123.899 108.707 123.711 108.555 123.524C108.185 123.075 107.812 122.627 107.44 122.178C107.256 121.958 107.071 121.74 106.891 121.522C106.52 121.08 106.146 120.642 105.773 120.201C105.606 120.006 105.439 119.809 105.274 119.614C104.737 118.988 104.196 118.362 103.654 117.738C103.109 117.113 102.562 116.497 102.016 115.883C101.846 115.692 101.677 115.502 101.507 115.313C101.124 114.882 100.737 114.455 100.35 114.028C100.161 113.817 99.9714 113.611 99.7846 113.402C99.3901 112.971 98.9944 112.541 98.5998 112.115C98.4378 111.939 98.2787 111.766 98.1167 111.592C97.5684 111.003 97.0188 110.415 96.469 109.834C96.3932 109.756 96.3181 109.678 96.2416 109.597C95.7669 109.095 95.2898 108.598 94.8098 108.101C94.6786 107.965 94.5466 107.83 94.4131 107.692C94.2811 107.832 94.146 107.968 94.0117 108.105C93.5445 108.594 93.0726 109.084 92.6031 109.579C92.5213 109.665 92.4389 109.751 92.3549 109.838C91.8074 110.418 91.2591 111.001 90.7116 111.592C90.5489 111.766 90.3853 111.945 90.2203 112.122C89.828 112.545 89.4366 112.973 89.0451 113.402C88.8546 113.611 88.6634 113.819 88.4759 114.029C88.0889 114.455 87.7047 114.882 87.3192 115.313C87.1489 115.502 86.9795 115.692 86.8114 115.883C86.2639 116.497 85.7172 117.114 85.1734 117.738C84.6296 118.362 84.0911 118.988 83.5526 119.614C83.3876 119.808 83.2226 120.006 83.0569 120.198C82.6804 120.642 82.3059 121.082 81.9339 121.526C81.7524 121.74 81.5724 121.957 81.3939 122.17C81.0137 122.624 80.638 123.079 80.263 123.534C80.113 123.717 79.9622 123.9 79.8107 124.084C79.2954 124.714 78.7839 125.341 78.2784 125.973C78.2056 126.061 78.1374 126.151 78.0639 126.239C77.6289 126.784 77.1953 127.328 76.7663 127.875C76.5983 128.085 76.4354 128.294 76.2697 128.504C76.1827 128.617 76.0958 128.732 76.0066 128.842C76.1303 128.97 76.2534 129.097 76.3749 129.224C76.8564 129.723 77.3371 130.225 77.8201 130.73C77.8906 130.807 77.9627 130.881 78.0355 130.961C78.586 131.54 79.1372 132.128 79.687 132.718C79.8453 132.889 80.0057 133.064 80.164 133.238C80.5615 133.666 80.959 134.099 81.3535 134.53C81.5433 134.735 81.7279 134.944 81.9169 135.149C82.3047 135.578 82.6901 136.01 83.0771 136.44C83.2474 136.629 83.4154 136.817 83.5834 137.007C84.1317 137.622 84.6777 138.241 85.2214 138.864C85.7652 139.487 86.3036 140.111 86.8399 140.737C87.0079 140.934 87.176 141.131 87.3417 141.33C87.7168 141.768 88.0888 142.207 88.4586 142.649C88.6401 142.864 88.8239 143.081 89.0047 143.302C89.3812 143.749 89.7553 144.201 90.1251 144.654C90.2803 144.838 90.4326 145.026 90.5856 145.211C91.0986 145.838 91.6087 146.466 92.115 147.095C92.193 147.191 92.2673 147.287 92.3438 147.383C92.7758 147.92 93.2024 148.457 93.6262 148.996C93.7942 149.209 93.9645 149.426 94.1325 149.639C94.2262 149.758 94.3194 149.877 94.4131 150C94.5069 149.877 94.6021 149.758 94.6973 149.637C94.8661 149.423 95.031 149.209 95.1998 148.996C95.6273 148.455 96.0548 147.917 96.4883 147.377C96.5626 147.283 96.6369 147.191 96.7119 147.096C97.2151 146.466 97.7288 145.839 98.2403 145.211C98.3934 145.025 98.5479 144.838 98.7009 144.654C99.0729 144.201 99.4473 143.749 99.823 143.302C100.005 143.081 100.185 142.864 100.369 142.649C100.74 142.207 101.11 141.768 101.484 141.33C101.652 141.131 101.818 140.935 101.988 140.737C102.523 140.111 103.063 139.488 103.607 138.864C104.151 138.241 104.697 137.622 105.243 137.007C105.411 136.816 105.581 136.629 105.748 136.44C106.137 136.008 106.522 135.578 106.909 135.149C107.098 134.943 107.285 134.735 107.474 134.53C107.868 134.097 108.265 133.666 108.662 133.238C108.821 133.062 108.981 132.889 109.141 132.718C109.691 132.127 110.24 131.54 110.792 130.961C110.863 130.88 110.936 130.807 111.008 130.73C111.489 130.225 111.97 129.723 112.451 129.224C112.575 129.097 112.697 128.97 112.82 128.842C112.736 128.735 112.651 128.625 112.566 128.516Z" fill="#80CFF4"/>
<path fill-rule="evenodd" clip-rule="evenodd" d="M51.1283 73.502C51.4546 73.6798 51.7809 73.8598 52.1072 74.0405C52.2834 74.138 52.4605 74.2379 52.636 74.3361C52.957 74.5169 53.2794 74.7021 53.6019 74.8874C53.7744 74.9834 53.9463 75.0847 54.1173 75.1867C54.8073 75.5849 55.4995 75.9952 56.1963 76.4175C56.2825 76.4715 56.368 76.5209 56.4565 76.5757C56.7655 76.7624 57.0747 76.9559 57.3837 77.1471C57.596 77.2784 57.8073 77.409 58.0195 77.5418C58.3173 77.7285 58.6165 77.9197 58.9143 78.1087C59.1438 78.2535 59.3711 78.4006 59.5984 78.5491C59.8909 78.7373 60.1827 78.9255 60.4767 79.1198C60.7228 79.2788 60.9688 79.4431 61.2148 79.6058C61.6865 79.9194 62.1584 80.2373 62.6316 80.5583C62.9166 80.7503 63.2001 80.9438 63.4851 81.1403C63.7543 81.3278 64.0273 81.5161 64.2981 81.7074C64.5659 81.8949 64.833 82.0794 65.1 82.2714C65.3715 82.4619 65.6407 82.6539 65.9107 82.8474C66.1904 83.0469 66.4687 83.248 66.7477 83.4505C67.005 83.6372 67.2629 83.8247 67.5247 84.0152C67.887 84.2807 68.2515 84.5545 68.6161 84.8253C68.9378 85.0653 69.2582 85.3061 69.5785 85.5484C69.9378 85.8199 70.2978 86.092 70.6593 86.3718C70.9001 86.5556 71.1421 86.7439 71.3821 86.9307C71.6941 87.1722 72.0034 87.4136 72.3161 87.6603C72.5591 87.8501 72.8028 88.0415 73.0465 88.2365C73.2993 88.436 73.5511 88.6369 73.8024 88.8416C73.8437 88.7966 73.8837 88.7555 73.9234 88.712C74.0059 88.6272 74.0876 88.5417 74.1701 88.4555C74.6419 87.9597 75.1105 87.4692 75.5823 86.9809C75.7675 86.7859 75.9544 86.596 76.1419 86.404C76.5184 86.0155 76.892 85.6323 77.2678 85.2513C77.4673 85.0488 77.6629 84.8493 77.8617 84.6498C78.2607 84.2485 78.6584 83.8494 79.0544 83.4534C79.2171 83.2929 79.3776 83.1339 79.5381 82.9726C80.0819 82.4319 80.6301 81.8979 81.1776 81.3653C81.3171 81.2296 81.4544 81.0983 81.5954 80.9656C82.0102 80.562 82.4255 80.163 82.8403 79.7655C83.0488 79.5698 83.2531 79.377 83.4608 79.179C83.8178 78.8422 84.1762 78.5033 84.5369 78.1695C84.7477 77.973 84.9571 77.7787 85.1671 77.5837C85.5609 77.2199 85.9538 76.857 86.349 76.4985C86.511 76.3485 86.6752 76.1983 86.8395 76.0476C87.3743 75.5601 87.9121 75.0793 88.4491 74.6023C88.6359 74.4336 88.8249 74.27 89.0116 74.1035C89.3792 73.778 89.7452 73.4563 90.1112 73.1375C90.3392 72.9388 90.5657 72.7445 90.7892 72.551C91.1252 72.2577 91.4635 71.9697 91.7973 71.6839C92.0246 71.4904 92.2495 71.297 92.4767 71.1065C92.8547 70.7832 93.2351 70.4674 93.6123 70.1524C93.7886 70.0061 93.9603 69.8606 94.1335 69.7158C94.228 69.6386 94.3212 69.5636 94.4128 69.4886C93.9815 69.1316 93.5501 68.7753 93.1181 68.4258C92.9051 68.2526 92.6927 68.0831 92.4767 67.9114C92.143 67.6398 91.8069 67.3713 91.4709 67.1051C91.2324 66.9168 90.9931 66.7278 90.7531 66.538C90.4359 66.2897 90.1209 66.0438 89.8059 65.7993C89.5697 65.614 89.3327 65.4302 89.0957 65.2495C88.726 64.9645 88.3569 64.6854 87.9871 64.4057C87.6833 64.1762 87.3818 63.9504 87.0803 63.7254C86.7023 63.4426 86.3267 63.1622 85.9479 62.8854C85.6967 62.6994 85.4445 62.5186 85.1918 62.3356C84.906 62.1286 84.6196 61.9209 84.3354 61.7161C84.0699 61.5271 83.8043 61.3388 83.5388 61.1491C83.2642 60.954 82.9912 60.7636 82.7167 60.5731C82.4526 60.387 82.1871 60.2025 81.9224 60.0195C81.6149 59.8065 81.3074 59.5988 81.0021 59.3918C80.5611 59.0932 80.1216 58.7977 79.6843 58.5074C79.4233 58.3319 79.1615 58.1586 78.902 57.9884C78.6155 57.8009 78.3298 57.6156 78.0433 57.4333C77.8085 57.2796 77.5736 57.1297 77.3366 56.9789C77.0471 56.7906 76.75 56.6069 76.4583 56.4224C76.2393 56.2821 76.0174 56.1486 75.7961 56.0106C75.4946 55.8238 75.1932 55.6362 74.8946 55.4525C74.7596 55.373 74.6262 55.2928 74.4927 55.2111C73.8514 54.8255 73.2129 54.4474 72.5769 54.0769C72.3946 53.9682 72.2095 53.861 72.0258 53.756C71.7115 53.5737 71.3957 53.3966 71.083 53.2211C70.9247 53.1311 70.7657 53.0434 70.6074 52.9564C63.8474 58.9297 57.0575 65.6754 50.4084 73.115C50.5022 73.1645 50.5951 73.2162 50.6888 73.265C50.8336 73.343 50.9813 73.4233 51.1283 73.502Z" fill="#3769B0"/>
</svg>
