<svg width="185" height="185" viewBox="0 0 185 185" fill="none" xmlns="http://www.w3.org/2000/svg">
<path fill-rule="evenodd" clip-rule="evenodd" d="M61.3412 40.086C61.7546 40.318 62.1711 40.5521 62.5875 40.793C62.8304 40.9308 63.074 41.0745 63.316 41.2173C64.1577 41.7051 65.0007 42.2069 65.8484 42.7165C66.0249 42.8235 66.2013 42.9315 66.3797 43.0356C66.7743 43.2785 67.1729 43.5265 67.5714 43.7734C67.8639 43.9538 68.1572 44.1333 68.4467 44.3177C68.8333 44.5616 69.2241 44.8055 69.6077 45.0533C69.921 45.2526 70.2315 45.4507 70.5419 45.654C70.9206 45.8949 71.2983 46.1408 71.677 46.3877C72.02 46.6118 72.366 46.8438 72.711 47.0738C73.29 47.4555 73.8701 47.8492 74.453 48.2428C74.8575 48.5164 75.263 48.792 75.6695 49.0725C76.0205 49.3135 76.3704 49.5594 76.7194 49.8043C77.0823 50.0561 77.4432 50.3089 77.8061 50.5657C78.1581 50.8165 78.5082 51.0654 78.8591 51.3153C79.2359 51.585 79.6134 51.8606 79.9912 52.1342C80.3253 52.3751 80.6576 52.616 80.9907 52.8609C81.4914 53.2238 81.9879 53.5975 82.4876 53.9713C82.8861 54.2687 83.2847 54.5672 83.6862 54.8705C84.175 55.2384 84.6629 55.6102 85.1517 55.9859C85.465 56.2219 85.7772 56.4678 86.0905 56.7126C86.5079 57.0359 86.9232 57.363 87.3425 57.6892C87.6608 57.939 87.9761 58.1899 88.2914 58.4388C88.7356 58.7897 89.1797 59.1457 89.6209 59.5046C89.9065 59.7296 90.1861 59.9556 90.4687 60.1846C91.0398 60.6466 91.613 61.1177 92.1801 61.5856C92.7482 61.1186 93.3132 60.6556 93.8783 60.1986C94.1758 59.9537 94.476 59.7147 94.7764 59.4747C95.2027 59.1287 95.6243 58.7907 96.0506 58.4546C96.3817 58.1919 96.7099 57.9331 97.0401 57.6723C97.4416 57.359 97.8403 57.0468 98.2418 56.7355C98.568 56.4817 98.897 56.2247 99.2251 55.9739C99.6802 55.6219 100.134 55.283 100.585 54.937C101.055 54.583 101.521 54.233 101.985 53.887C102.443 53.546 102.899 53.2058 103.354 52.8737C103.705 52.6149 104.052 52.3632 104.4 52.1104C104.762 51.8486 105.122 51.5889 105.484 51.3321C105.847 51.0684 106.211 50.8115 106.574 50.5537C106.92 50.3078 107.265 50.0669 107.611 49.827C107.975 49.5702 108.34 49.3174 108.703 49.0656C109.064 48.8147 109.425 48.5698 109.791 48.3229C110.437 47.8837 111.08 47.4534 111.721 47.0261C112.04 46.813 112.355 46.6039 112.67 46.3947C113.064 46.1399 113.455 45.8881 113.843 45.6323C114.142 45.4439 114.437 45.2535 114.732 45.0661C115.134 44.8103 115.531 44.5575 115.928 44.3076C116.206 44.1321 116.481 43.9646 116.756 43.7941C117.169 43.5373 117.581 43.2806 117.992 43.0307C118.101 42.9643 118.207 42.9028 118.312 42.8363C119.241 42.2732 120.165 41.7269 121.086 41.1935C121.312 41.0606 121.537 40.9299 121.761 40.8C122.189 40.5521 122.612 40.3131 123.04 40.0752C123.241 39.9612 123.443 39.8462 123.648 39.7361C112.971 30.2946 102.349 22.3244 92.1801 16C82.0109 22.3244 71.3915 30.2946 60.7126 39.7361C60.9218 39.8472 61.132 39.9671 61.3412 40.086Z" fill="#35388A"/>
<path fill-rule="evenodd" clip-rule="evenodd" d="M149.404 66.8927C148.97 67.1297 148.53 67.3705 148.094 67.6154C147.87 67.7393 147.642 67.8644 147.418 67.9903C146.987 68.2352 146.553 68.481 146.121 68.7269C145.904 68.8508 145.69 68.9798 145.475 69.1047C144.511 69.6629 143.542 70.2368 142.571 70.8267C142.502 70.8694 142.432 70.91 142.361 70.9516C141.945 71.2044 141.526 71.4673 141.106 71.725C140.838 71.8926 140.566 72.0591 140.297 72.2297C139.893 72.4795 139.494 72.7343 139.091 72.992C138.8 73.1774 138.51 73.3658 138.215 73.5542C137.822 73.81 137.425 74.0639 137.032 74.3256C136.723 74.5239 136.416 74.731 136.108 74.9342C135.447 75.3764 134.78 75.8237 134.112 76.2768C133.766 76.5117 133.418 76.7477 133.072 76.9857C132.704 77.2395 132.332 77.4992 131.964 77.757C131.623 77.9959 131.283 78.2328 130.94 78.4757C130.574 78.7325 130.208 78.9961 129.845 79.2569C129.487 79.5117 129.131 79.7706 128.773 80.0293C128.421 80.2851 128.071 80.5399 127.717 80.8006C127.263 81.1327 126.809 81.4698 126.353 81.8099C125.888 82.1579 125.421 82.507 124.954 82.8609C124.498 83.203 124.046 83.5499 123.59 83.8979C123.26 84.1497 122.932 84.4065 122.605 84.6593C122.204 84.9706 121.805 85.282 121.406 85.5973C121.073 85.857 120.742 86.1198 120.412 86.3806C120.084 86.6413 119.753 86.9059 119.426 87.1716C120.1 87.8825 120.77 88.5994 121.444 89.3231C121.653 89.5502 121.864 89.7781 122.072 90.0051C122.595 90.5713 123.123 91.1433 123.644 91.7154C123.895 91.989 124.142 92.2648 124.391 92.5364C124.901 93.1005 125.413 93.6715 125.925 94.2416C126.147 94.4915 126.37 94.7384 126.592 94.9893C127.317 95.8042 128.038 96.6201 128.757 97.447C129.477 98.2708 130.19 99.0967 130.9 99.9246C131.12 100.181 131.338 100.439 131.558 100.699C132.053 101.279 132.547 101.862 133.037 102.446C133.28 102.733 133.519 103.023 133.759 103.311C134.256 103.905 134.75 104.503 135.242 105.1C135.444 105.344 135.649 105.59 135.848 105.835C136.529 106.663 137.203 107.495 137.871 108.328C137.968 108.448 138.064 108.568 138.159 108.685C138.735 109.405 139.302 110.123 139.87 110.841C140.093 111.12 140.309 111.401 140.529 111.681C140.978 112.253 141.425 112.826 141.866 113.4C142.097 113.695 142.325 113.992 142.553 114.289C142.838 114.658 143.123 115.029 143.406 115.401C143.422 115.387 143.435 115.376 143.453 115.363C143.903 115.002 144.354 114.643 144.803 114.284C145.114 114.036 145.427 113.792 145.739 113.546C146.165 113.21 146.588 112.881 147.014 112.55C147.32 112.312 147.625 112.076 147.93 111.841C148.437 111.452 148.942 111.065 149.45 110.685C149.813 110.41 150.176 110.136 150.539 109.865C151.064 109.475 151.586 109.087 152.106 108.704C152.432 108.467 152.752 108.232 153.078 107.998C153.467 107.713 153.856 107.435 154.242 107.158C154.587 106.912 154.93 106.667 155.271 106.426C155.647 106.16 156.018 105.901 156.389 105.639C156.731 105.401 157.069 105.161 157.411 104.925C157.845 104.629 158.276 104.337 158.708 104.043C159.251 103.675 159.793 103.311 160.333 102.952C160.696 102.71 161.06 102.468 161.423 102.232C161.792 101.988 162.16 101.752 162.528 101.514C162.851 101.304 163.174 101.098 163.495 100.894C163.873 100.65 164.25 100.411 164.628 100.175C164.936 99.983 165.239 99.7937 165.547 99.6053C165.93 99.3634 166.316 99.1265 166.7 98.8925C166.939 98.7467 167.176 98.605 167.416 98.4612C168.189 97.9973 168.958 97.5393 169.725 97.0951C169.99 96.9385 170.252 96.7857 170.515 96.6341C170.921 96.4021 171.325 96.176 171.729 95.948C171.987 95.8003 172.246 95.6545 172.506 95.5107C172.789 95.3511 173.077 95.1914 173.361 95.0367C167.201 86.4627 160.439 77.9076 153.124 69.5229C152.203 68.4631 151.276 67.4201 150.351 66.3831C150.219 66.4534 150.09 66.522 149.959 66.5924C149.772 66.6905 149.588 66.7906 149.404 66.8927Z" fill="#00A0E3"/>
<path fill-rule="evenodd" clip-rule="evenodd" d="M92.5613 61.8988C92.7636 62.0674 92.9678 62.2409 93.1721 62.4114C93.7005 62.8506 94.23 63.2948 94.7565 63.7419C95.042 63.9838 95.3244 64.2236 95.6069 64.4655C96.0719 64.8591 96.5309 65.2567 96.9949 65.6572C97.2785 65.9031 97.5632 66.149 97.8458 66.3988C98.3554 66.839 98.8627 67.2833 99.3694 67.7354C99.5974 67.9346 99.8216 68.132 100.051 68.3362C100.768 68.9747 101.487 69.6181 102.204 70.2724C102.401 70.4489 102.6 70.6323 102.797 70.8127C103.337 71.3054 103.876 71.8033 104.417 72.303C104.685 72.5508 104.946 72.7977 105.214 73.0446C105.704 73.4987 106.194 73.9576 106.68 74.4226C106.943 74.6684 107.203 74.9143 107.463 75.1652C108.034 75.7045 108.601 76.2518 109.171 76.7991C109.334 76.9597 109.501 77.1203 109.668 77.2819C110.397 77.9888 111.124 78.7028 111.856 79.4235C112.053 79.6218 112.251 79.8201 112.451 80.0194C112.991 80.5567 113.531 81.0969 114.074 81.6442C114.325 81.896 114.576 82.1519 114.826 82.4077C115.336 82.9243 115.845 83.4448 116.353 83.9683C116.59 84.2142 116.827 84.4559 117.065 84.7008C117.7 85.3591 118.339 86.0255 118.974 86.6967C119.071 86.7978 119.166 86.894 119.26 86.9951C119.315 87.0526 119.371 87.11 119.426 87.1715C119.754 86.9048 120.085 86.6422 120.413 86.3805C120.744 86.1197 121.073 85.857 121.407 85.5972C121.806 85.2799 122.204 84.9705 122.606 84.6592C122.934 84.4064 123.261 84.1506 123.59 83.8978C124.046 83.5488 124.499 83.2049 124.955 82.8609C125.422 82.5069 125.889 82.1578 126.354 81.8098C126.81 81.4697 127.264 81.1326 127.718 80.8005C128.072 80.5388 128.422 80.285 128.774 80.0292C129.132 79.7705 129.487 79.5136 129.845 79.2568C130.209 78.9941 130.574 78.7334 130.941 78.4757C131.284 78.2318 131.624 77.9968 131.965 77.7569C132.334 77.4991 132.705 77.2394 133.073 76.9856C133.419 76.7457 133.766 76.5116 134.112 76.2767C134.781 75.8216 135.448 75.3763 136.108 74.9342C136.417 74.7299 136.724 74.5238 137.033 74.3255C137.426 74.0628 137.821 73.8099 138.216 73.5541C138.512 73.3657 138.801 73.1793 139.092 72.9919C139.495 72.7322 139.894 72.4804 140.297 72.2296C140.568 72.0571 140.837 71.8925 141.107 71.7249C141.527 71.4652 141.946 71.2044 142.362 70.9515C142.433 70.9089 142.503 70.8693 142.571 70.8266C143.546 70.2357 144.512 69.6638 145.476 69.1046C145.691 68.9787 145.905 68.8517 146.122 68.7268C146.553 68.4799 146.987 68.2351 147.419 67.9902C147.644 67.8633 147.871 67.7412 148.095 67.6153C148.532 67.3704 148.97 67.1306 149.405 66.8926C149.589 66.7895 149.773 66.6904 149.96 66.5923C150.092 66.5209 150.22 66.4504 150.348 66.383C141.562 56.5489 132.584 47.6319 123.648 39.736C123.447 39.8461 123.241 39.9591 123.04 40.0751C122.614 40.312 122.189 40.552 121.762 40.7999C121.538 40.9288 121.311 41.0605 121.086 41.1934C120.166 41.7268 119.242 42.2731 118.313 42.8362C118.208 42.9017 118.102 42.9662 117.993 43.0306C117.582 43.2805 117.17 43.5382 116.756 43.794C116.482 43.9635 116.206 44.133 115.928 44.3075C115.533 44.5573 115.133 44.8102 114.733 45.066C114.437 45.2534 114.142 45.4438 113.844 45.6322C113.456 45.888 113.064 46.1408 112.671 46.3946C112.355 46.6038 112.04 46.8139 111.722 47.026C111.081 47.4523 110.438 47.8846 109.792 48.3228C109.426 48.5687 109.065 48.8146 108.704 49.0655C108.34 49.3173 107.975 49.5721 107.612 49.8269C107.266 50.0668 106.92 50.3087 106.574 50.5536C106.211 50.8104 105.847 51.0693 105.485 51.332C105.124 51.5888 104.763 51.8485 104.401 52.1103C104.054 52.3621 103.705 52.6158 103.354 52.8736C102.901 53.2037 102.444 53.5459 101.986 53.8869C101.522 54.2329 101.055 54.5829 100.586 54.9368C100.135 55.2819 99.6798 55.6238 99.2257 55.9738C98.8975 56.2217 98.5676 56.4816 98.2424 56.7354C97.8418 57.0467 97.4422 57.3589 97.0406 57.6722C96.7105 57.932 96.3823 58.1918 96.0511 58.4545C95.6248 58.7896 95.2033 59.1316 94.777 59.4746C94.4766 59.7136 94.1763 59.9536 93.8789 60.1985C93.3137 60.6545 92.7485 61.1224 92.1833 61.5894C92.3063 61.6925 92.4354 61.7937 92.5613 61.8988Z" fill="#3769B0"/>
<path fill-rule="evenodd" clip-rule="evenodd" d="M12.6328 95.948C13.0363 96.174 13.4379 96.403 13.8434 96.6341C14.1101 96.7857 14.3738 96.9424 14.6385 97.0951C15.399 97.5393 16.1602 97.9882 16.9246 98.4483C17.1705 98.598 17.4148 98.7438 17.6616 98.8925C18.0433 99.1265 18.4268 99.3654 18.8095 99.6053C19.1179 99.7937 19.4263 99.983 19.7336 100.175C20.1103 100.41 20.4881 100.651 20.8648 100.891C21.1851 101.098 21.5102 101.305 21.8354 101.514C22.2022 101.752 22.5672 101.99 22.936 102.23C23.2989 102.468 23.6657 102.71 24.0286 102.952C24.5709 103.312 25.1113 103.677 25.6536 104.043C26.0859 104.337 26.517 104.629 26.9483 104.925C27.2893 105.161 27.6293 105.401 27.9703 105.639C28.3411 105.9 28.7172 106.16 29.088 106.426C29.432 106.667 29.7738 106.912 30.1178 107.158C30.5064 107.435 30.8951 107.714 31.2808 107.998C31.607 108.232 31.9293 108.467 32.2525 108.704C32.778 109.087 33.3023 109.479 33.8268 109.872C34.1887 110.136 34.5437 110.406 34.9046 110.68C35.4122 111.063 35.9219 111.449 36.4286 111.841C36.7349 112.075 37.0391 112.312 37.3445 112.55C37.7708 112.881 38.1974 113.211 38.6217 113.546C38.9321 113.792 39.2452 114.036 39.5555 114.284C40.0056 114.642 40.4558 115.003 40.9079 115.363C40.9227 115.375 40.9377 115.388 40.9536 115.401C41.2331 115.033 41.5184 114.665 41.8009 114.295C42.0309 113.995 42.2633 113.694 42.4973 113.395C42.9365 112.82 43.3783 112.257 43.8245 111.687C44.0476 111.404 44.2669 111.122 44.491 110.838C45.0522 110.128 45.6171 109.419 46.1842 108.707C46.2873 108.581 46.3886 108.451 46.4898 108.325C47.159 107.491 47.8322 106.664 48.5114 105.835C48.7136 105.59 48.9175 105.343 49.1217 105.096C49.6115 104.499 50.1033 103.906 50.598 103.313C50.84 103.023 51.0801 102.733 51.325 102.446C51.8147 101.862 52.3064 101.283 52.8001 100.703C53.0183 100.44 53.2393 100.182 53.4624 99.9246C54.1693 99.0957 54.8833 98.2689 55.6021 97.447C56.3219 96.6211 57.0437 95.8042 57.7655 94.9912C57.9925 94.7384 58.2164 94.4865 58.4405 94.2337C58.9481 93.6656 59.4549 93.1045 59.9625 92.5434C60.2153 92.2648 60.4688 91.9891 60.7216 91.7105C61.2401 91.1414 61.756 90.5773 62.2765 90.0181C62.4907 89.7851 62.7057 89.5501 62.9198 89.3181C63.592 88.5973 64.265 87.8815 64.9352 87.1716C64.6011 86.9039 64.2682 86.6364 63.936 86.3717C63.6148 86.1139 63.2908 85.8619 62.9705 85.6101C62.5571 85.2819 62.1473 84.9648 61.7359 84.6455C61.4186 84.3967 61.0987 84.1507 60.7805 83.9068C60.3036 83.537 59.8267 83.1772 59.3518 82.8183C58.9284 82.4981 58.5039 82.1798 58.0796 81.8625C57.5977 81.5036 57.1158 81.1446 56.6369 80.7917C56.2909 80.5389 55.9499 80.2931 55.6099 80.0452C55.241 79.7775 54.8732 79.5137 54.5034 79.248C54.1465 78.9922 53.7897 78.7384 53.4318 78.4866C53.0788 78.2318 52.7257 77.9889 52.3718 77.7411C52.0139 77.4883 51.653 77.2393 51.2971 76.9915C50.9203 76.7307 50.5457 76.4779 50.1689 76.2222C49.5443 75.7978 48.9197 75.3765 48.296 74.9631C47.9718 74.747 47.6457 74.5308 47.3205 74.3206C46.9318 74.0628 46.5451 73.815 46.1594 73.5662C45.859 73.3689 45.5585 73.1754 45.2551 72.9841C44.8615 72.7323 44.4659 72.4816 44.0723 72.2347C43.7928 72.0572 43.5125 71.8865 43.2319 71.713C42.8235 71.4602 42.4147 71.2045 42.0062 70.9576C41.8902 70.8843 41.7763 70.8199 41.6623 70.7485C40.7412 70.1903 39.8263 69.649 38.9141 69.1215C38.6881 68.9857 38.4599 68.8528 38.2329 68.7259C37.8076 68.48 37.3804 68.2392 36.956 67.9972C36.725 67.8654 36.49 67.7354 36.257 67.6065C35.8267 67.3666 35.3946 67.1306 34.9623 66.8947C34.769 66.7896 34.5735 66.6864 34.3822 66.5813C34.2592 66.5159 34.1345 66.4505 34.0115 66.3831C33.0855 67.4201 32.1595 68.4641 31.2374 69.5229C23.9206 77.9076 17.1598 86.4627 11 95.0367C11.2826 95.1904 11.5673 95.3531 11.8528 95.5107C12.1135 95.6545 12.373 95.8022 12.6328 95.948Z" fill="#00A0E3"/>
<path fill-rule="evenodd" clip-rule="evenodd" d="M116.176 139.616C115.952 139.329 115.729 139.046 115.502 138.758C114.945 138.05 114.384 137.345 113.819 136.64C113.713 136.509 113.612 136.378 113.508 136.247C112.837 135.415 112.164 134.589 111.487 133.762C111.284 133.513 111.075 133.265 110.874 133.017C110.384 132.423 109.892 131.831 109.4 131.238C109.158 130.947 108.913 130.658 108.674 130.371C108.184 129.787 107.689 129.207 107.196 128.624C106.975 128.366 106.756 128.106 106.537 127.849C105.828 127.021 105.112 126.193 104.396 125.369C103.675 124.542 102.952 123.728 102.23 122.917C102.006 122.664 101.782 122.413 101.557 122.164C101.051 121.594 100.54 121.028 100.029 120.464C99.7788 120.186 99.5277 119.913 99.2808 119.637C98.7593 119.067 98.2361 118.499 97.7146 117.935C97.5005 117.703 97.2901 117.474 97.076 117.245C96.3513 116.466 95.6246 115.688 94.8979 114.921C94.7978 114.817 94.6985 114.715 94.5974 114.608C93.9698 113.943 93.3393 113.287 92.7047 112.63C92.5312 112.45 92.3568 112.271 92.1804 112.089C92.0059 112.274 91.8273 112.454 91.6498 112.635C91.0321 113.281 90.4084 113.93 89.7877 114.583C89.6797 114.697 89.5707 114.811 89.4597 114.926C88.736 115.692 88.0112 116.464 87.2874 117.244C87.0723 117.474 86.8561 117.711 86.638 117.945C86.1194 118.504 85.6021 119.069 85.0846 119.637C84.8328 119.913 84.58 120.189 84.3321 120.465C83.8205 121.028 83.3127 121.594 82.8031 122.164C82.578 122.413 82.354 122.664 82.1319 122.917C81.4082 123.728 80.6854 124.543 79.9666 125.369C79.2479 126.193 78.5361 127.021 77.8242 127.849C77.6061 128.105 77.388 128.367 77.1689 128.621C76.6712 129.207 76.1762 129.789 75.6845 130.376C75.4445 130.659 75.2067 130.946 74.9707 131.227C74.468 131.827 73.9715 132.429 73.4758 133.031C73.2775 133.272 73.0781 133.514 72.8778 133.757C72.1967 134.589 71.5206 135.419 70.8524 136.254C70.7562 136.37 70.666 136.49 70.5689 136.606C69.9938 137.326 69.4207 138.045 68.8536 138.768C68.6315 139.046 68.4163 139.322 68.1971 139.6C68.0821 139.749 67.9673 139.901 67.8494 140.047C68.013 140.216 68.1756 140.383 68.3362 140.552C68.9727 141.211 69.6082 141.875 70.2466 142.543C70.3398 142.644 70.4351 142.742 70.5313 142.847C71.259 143.613 71.9877 144.39 72.7144 145.17C72.9236 145.396 73.1357 145.628 73.3449 145.857C73.8704 146.423 74.3958 146.995 74.9173 147.565C75.1681 147.837 75.4122 148.112 75.662 148.384C76.1746 148.95 76.6841 149.521 77.1956 150.091C77.4207 150.34 77.6428 150.588 77.8649 150.84C78.5896 151.652 79.3114 152.471 80.0302 153.295C80.749 154.118 81.4606 154.943 82.1695 155.77C82.3916 156.031 82.6138 156.291 82.8329 156.554C83.3286 157.134 83.8205 157.714 84.3092 158.298C84.5492 158.581 84.7922 158.869 85.0311 159.16C85.5288 159.752 86.0233 160.349 86.5121 160.948C86.7173 161.191 86.9187 161.439 87.1209 161.684C87.7991 162.513 88.4733 163.343 89.1425 164.175C89.2456 164.302 89.3439 164.429 89.445 164.555C90.0161 165.265 90.58 165.975 91.1401 166.687C91.3622 166.969 91.5873 167.255 91.8093 167.538C91.9333 167.695 92.0564 167.852 92.1804 168.015C92.3043 167.852 92.4301 167.694 92.556 167.535C92.7791 167.251 92.9971 166.969 93.2202 166.687C93.7853 165.972 94.3504 165.262 94.9235 164.548C95.0216 164.423 95.1198 164.301 95.219 164.176C95.8842 163.343 96.5633 162.514 97.2394 161.684C97.4417 161.438 97.646 161.191 97.8482 160.948C98.34 160.349 98.8348 159.752 99.3315 159.16C99.5724 158.869 99.8105 158.581 100.053 158.298C100.543 157.714 101.033 157.134 101.527 156.554C101.75 156.291 101.969 156.032 102.193 155.77C102.901 154.943 103.614 154.119 104.333 153.295C105.052 152.471 105.774 151.652 106.496 150.84C106.718 150.587 106.943 150.34 107.164 150.091C107.677 149.519 108.186 148.951 108.699 148.384C108.949 148.111 109.196 147.837 109.445 147.565C109.966 146.993 110.49 146.423 111.016 145.857C111.225 145.625 111.437 145.396 111.648 145.17C112.376 144.389 113.102 143.613 113.831 142.847C113.926 142.741 114.021 142.644 114.116 142.543C114.753 141.874 115.388 141.211 116.025 140.552C116.188 140.383 116.35 140.216 116.511 140.047C116.401 139.905 116.289 139.76 116.176 139.616Z" fill="#80CFF4"/>
<path fill-rule="evenodd" clip-rule="evenodd" d="M34.9635 66.8946C35.3948 67.1295 35.8261 67.3675 36.2574 67.6064C36.4904 67.7353 36.7245 67.8673 36.9565 67.9972C37.3808 68.2361 37.807 68.4809 38.2333 68.7258C38.4614 68.8527 38.6885 68.9866 38.9146 69.1214C39.8267 69.6479 40.7417 70.1902 41.6627 70.7484C41.7767 70.8198 41.8896 70.8852 42.0066 70.9575C42.4151 71.2044 42.8239 71.4601 43.2324 71.7129C43.513 71.8864 43.7922 72.0591 44.0728 72.2346C44.4664 72.4815 44.8619 72.7342 45.2555 72.984C45.5589 73.1753 45.8594 73.3698 46.1598 73.5661C46.5465 73.8149 46.9323 74.0637 47.3209 74.3205C47.6461 74.5307 47.9713 74.7479 48.2965 74.963C48.9201 75.3774 49.5438 75.7977 50.1694 76.2221C50.5461 76.4759 50.9208 76.7316 51.2975 76.9914C51.6535 77.2393 52.0143 77.4882 52.3722 77.741C52.7262 77.9888 53.0793 78.2327 53.4322 78.4865C53.7911 78.7383 54.1469 78.9921 54.5038 79.2479C54.8736 79.5116 55.2415 79.7774 55.6103 80.0451C55.9504 80.292 56.2914 80.5398 56.6374 80.7916C57.1162 81.1426 57.5982 81.5045 58.08 81.8624C58.5053 82.1797 58.9289 82.498 59.3522 82.8182C59.8271 83.1772 60.303 83.5369 60.7809 83.9067C61.0992 84.1496 61.4191 84.3986 61.7363 84.6454C62.1488 84.9647 62.5576 85.2838 62.971 85.61C63.2922 85.8608 63.6143 86.1138 63.9365 86.3716C64.2706 86.6353 64.6035 86.9008 64.9357 87.1715C64.9902 87.112 65.0431 87.0576 65.0956 87.0001C65.2047 86.8881 65.3126 86.7751 65.4217 86.6611C66.0453 86.0057 66.6648 85.3573 67.2884 84.7119C67.5333 84.4541 67.7803 84.2031 68.0281 83.9493C68.5258 83.4357 69.0197 82.9292 69.5164 82.4255C69.7802 82.1579 70.0387 81.8942 70.3015 81.6305C70.8289 81.1 71.3546 80.5725 71.8781 80.049C72.0932 79.8368 72.3053 79.6266 72.5175 79.4135C73.2363 78.6986 73.961 77.9928 74.6847 77.2888C74.8691 77.1094 75.0506 76.9359 75.237 76.7604C75.7853 76.227 76.3343 75.6995 76.8825 75.1741C77.1582 74.9153 77.4282 74.6605 77.7028 74.3987C78.1747 73.9536 78.6484 73.5055 79.1253 73.0644C79.4039 72.8046 79.6807 72.5478 79.9583 72.29C80.4788 71.8091 80.9981 71.3294 81.5206 70.8555C81.7348 70.6572 81.9518 70.4587 82.1689 70.2595C82.8758 69.615 83.5868 68.9796 84.2967 68.349C84.5435 68.1259 84.7934 67.9098 85.0403 67.6897C85.5261 67.2594 86.0099 66.8342 86.4937 66.4128C86.7951 66.1501 87.0944 65.8932 87.3899 65.6374C87.8341 65.2498 88.2813 64.869 88.7225 64.4913C89.0229 64.2355 89.3202 63.9798 89.6206 63.728C90.1203 63.3006 90.6231 62.8832 91.1217 62.4668C91.3547 62.2734 91.5817 62.0811 91.8107 61.8897C91.9356 61.7876 92.0588 61.6885 92.1798 61.5894C91.6097 61.1175 91.0395 60.6465 90.4684 60.1845C90.1868 59.9555 89.9062 59.7315 89.6206 59.5044C89.1795 59.1455 88.7353 58.7906 88.2911 58.4386C87.9758 58.1898 87.6595 57.9399 87.3423 57.6891C86.9229 57.3609 86.5066 57.0357 86.0902 56.7125C85.7779 56.4676 85.4647 56.2247 85.1514 55.9858C84.6626 55.6091 84.1747 55.2402 83.6859 54.8704C83.2844 54.567 82.8859 54.2686 82.4873 53.9712C81.9876 53.5974 81.4911 53.2267 80.9904 52.8608C80.6583 52.6149 80.325 52.376 79.9909 52.1341C79.6131 51.8604 79.2346 51.5858 78.8588 51.3152C78.5079 51.0653 78.1568 50.8164 77.8058 50.5656C77.443 50.3078 77.082 50.056 76.7191 49.8042C76.3701 49.5583 76.0192 49.3143 75.6692 49.0724C75.2627 48.7909 74.8563 48.5163 74.4527 48.2427C73.8698 47.8481 73.2888 47.4574 72.7107 47.0737C72.3657 46.8417 72.0197 46.6127 71.6767 46.3876C71.298 46.1397 70.9203 45.8948 70.5416 45.6539C70.2313 45.4506 69.9207 45.2525 69.6075 45.0532C69.2248 44.8044 68.8321 44.5615 68.4464 44.3176C68.1569 44.1322 67.8636 43.9557 67.5711 43.7732C67.1726 43.5264 66.774 43.2784 66.3795 43.0355C66.201 42.9304 66.0246 42.8244 65.8481 42.7164C65.0004 42.2068 64.1564 41.707 63.3157 41.2172C63.0747 41.0734 62.8301 40.9317 62.5872 40.7929C62.1718 40.552 61.7543 40.3179 61.3409 40.0859C61.1317 39.967 60.9215 39.851 60.7124 39.736C51.7765 47.6319 42.8011 56.5489 34.012 66.383C34.1359 66.4484 34.2587 66.5168 34.3826 66.5813C34.5739 66.6844 34.7692 66.7905 34.9635 66.8946Z" fill="#3769B0"/>
</svg>
